<?xml version="1.0"?><svg version="1.1" id="圖層_1" xmlns="http://www.w3.org/2000/svg" x="0" y="0" viewBox="0 0 100 100" xml:space="preserve"><path d="M56.258 67.055V44.077H43.742v22.978c0 6.52-2.529 12.94-7.462 17.203-1.832 1.583-2.904 3.5-2.904 5.566h33.249c0-2.066-1.072-3.982-2.904-5.566-4.934-4.263-7.463-10.683-7.463-17.203z" fill="#f47e60"/><path d="M50 43.791H25.521C16.949 43.791 10 36.843 10 28.271v-1.47a5.699 5.699 0 0 1 5.699-5.699H50" fill="none" stroke="#f47e60" stroke-width="5.639" stroke-miterlimit="10"/><path d="M50 21.101h34.301A5.699 5.699 0 0 1 90 26.8v1.47c0 8.572-6.949 15.521-15.521 15.521H50" fill="none" stroke="#e15b64" stroke-width="5.639" stroke-miterlimit="10"/><path d="M50 61.378c16.56 0 30.187-20.049 31.884-45.777.194-2.937-2.152-5.425-5.095-5.425H23.211c-2.943 0-5.289 2.488-5.095 5.425C19.813 41.329 33.44 61.378 50 61.378z" fill="#f8b26a"/><path d="M76.789 10.176H50v79.648h16.625c0-2.066-1.072-3.982-2.904-5.566-4.933-4.263-7.462-10.683-7.462-17.203v-6.658c13.626-4.307 24.149-22.395 25.626-44.795.193-2.937-2.153-5.426-5.096-5.426z" opacity=".5" fill="#e15b64"/><path fill="#f5e6c8" d="M50 18.143l4.647 9.417 10.392 1.51-7.519 7.33 1.775 10.35L50 41.863l-9.295 4.887L42.48 36.4l-7.519-7.33 10.392-1.51z"/><metadata xmlns:d="https://loading.io/stock/">
<d:name>trophy</d:name>
<d:tags>trophy,winner,award,goal,prize,success</d:tags>
<d:license>by</d:license>
<d:slug>ah6xlv</d:slug>
</metadata></svg>