<?xml version="1.0" encoding="iso-8859-1"?>
<!-- Generator: Adobe Illustrator 19.0.0, SVG Export Plug-In . SVG Version: 6.00 Build 0)  -->
<svg version="1.1" id="Layer_1" xmlns="http://www.w3.org/2000/svg" xmlns:xlink="http://www.w3.org/1999/xlink" x="0px" y="0px"
	 viewBox="0 0 512 512" style="enable-background:new 0 0 512 512;" xml:space="preserve">
<circle style="fill:#F1543F;" cx="256" cy="256" r="256"/>
<path style="fill:#D83E20;" d="M295.5,508.966c109.84-17.013,196.605-103.846,213.507-213.723l-97.802-97.582l-61.893,2.82
	L103.014,316.478L295.5,508.966z"/>
<path style="fill:#FFFFFF;" d="M352.539,173.253H159.461c-45.701,0-82.747,37.047-82.747,82.747s37.047,82.747,82.747,82.747
	c36.026,0,66.658-23.03,78.021-55.165h37.036c11.362,32.135,41.994,55.165,78.021,55.165c45.701,0,82.747-37.047,82.747-82.747
	C435.286,210.299,398.239,173.253,352.539,173.253z"/>
<path style="fill:#E6F3FF;" d="M352.539,173.253h-97.113v110.33h19.092c11.362,32.135,41.994,55.165,78.021,55.165
	c45.701,0,82.747-37.047,82.747-82.747C435.286,210.299,398.239,173.253,352.539,173.253z"/>
<path style="fill:#31BAFD;" d="M189.99,239.623h-17.958c-2.42,0-4.38-1.962-4.38-4.382v-17.958c0-2.42-1.962-4.38-4.38-4.38h-13.648
	c-2.42,0-4.38,1.962-4.38,4.38v17.958c0,2.42-1.962,4.382-4.38,4.382h-17.961c-2.42,0-4.38,1.962-4.38,4.382v13.648
	c0,2.42,1.962,4.382,4.38,4.382h17.958c2.42,0,4.38,1.962,4.38,4.382v17.958c0,2.42,1.962,4.382,4.38,4.382h13.648
	c2.42,0,4.38-1.962,4.38-4.382v-17.958c0-2.42,1.962-4.382,4.38-4.382h17.958c2.42,0,4.38-1.962,4.38-4.382v-13.648
	C194.37,241.585,192.409,239.623,189.99,239.623z"/>
<circle style="fill:#FFD15D;" cx="357.71" cy="226.194" r="14.157"/>
<circle style="fill:#FF6472;" cx="357.71" cy="285.806" r="14.157"/>
<circle style="fill:#31BAFD;" cx="387.517" cy="256" r="14.157"/>
<circle style="fill:#90DFAA;" cx="327.904" cy="256" r="14.157"/>
<g>
</g>
<g>
</g>
<g>
</g>
<g>
</g>
<g>
</g>
<g>
</g>
<g>
</g>
<g>
</g>
<g>
</g>
<g>
</g>
<g>
</g>
<g>
</g>
<g>
</g>
<g>
</g>
<g>
</g>
</svg>
